<?xml version="1.0" encoding="UTF-8"?>
<!DOCTYPE svg PUBLIC "-//W3C//DTD SVG 1.1//EN" "http://www.w3.org/Graphics/SVG/1.1/DTD/svg11.dtd">
<svg xmlns="http://www.w3.org/2000/svg" version="1.1" width="512px" height="512px" style="shape-rendering:geometricPrecision; text-rendering:geometricPrecision; image-rendering:optimizeQuality; fill-rule:evenodd; clip-rule:evenodd" xmlns:xlink="http://www.w3.org/1999/xlink">
<g><path style="opacity:0.968" fill="#000000" d="M 511.5,139.5 C 511.5,238.167 511.5,336.833 511.5,435.5C 506.377,454.449 494.044,465.616 474.5,469C 328.5,469.667 182.5,469.667 36.5,469C 16.9564,465.616 4.62307,454.449 -0.5,435.5C -0.5,336.833 -0.5,238.167 -0.5,139.5C 3.88471,122.614 14.5514,111.781 31.5,107C 70.4601,105.53 109.46,105.03 148.5,105.5C 148.334,96.1607 148.5,86.8274 149,77.5C 153.727,57.4393 166.227,45.606 186.5,42C 232.5,41.3333 278.5,41.3333 324.5,42C 344.773,45.606 357.273,57.4393 362,77.5C 362.5,86.8274 362.666,96.1607 362.5,105.5C 401.54,105.03 440.54,105.53 479.5,107C 496.449,111.781 507.115,122.614 511.5,139.5 Z M 191.5,63.5 C 236.2,63.0314 280.867,63.5314 325.5,65C 331.583,67.4148 336.083,71.5815 339,77.5C 340.386,86.7662 340.886,96.0995 340.5,105.5C 283.833,105.5 227.167,105.5 170.5,105.5C 170.114,96.0995 170.614,86.7662 172,77.5C 176.084,69.2293 182.584,64.5626 191.5,63.5 Z M 41.5,127.5 C 184.167,127.333 326.834,127.5 469.5,128C 479.934,128.953 486.434,134.453 489,144.5C 489.667,175.833 489.667,207.167 489,238.5C 486.434,248.547 479.934,254.047 469.5,255C 412.501,255.5 355.501,255.667 298.5,255.5C 298.666,250.489 298.499,245.489 298,240.5C 296.437,237.272 293.937,235.105 290.5,234C 267.167,233.333 243.833,233.333 220.5,234C 217.063,235.105 214.563,237.272 213,240.5C 212.501,245.489 212.334,250.489 212.5,255.5C 155.499,255.667 98.499,255.5 41.5,255C 31.0662,254.047 24.5662,248.547 22,238.5C 21.3333,207.167 21.3333,175.833 22,144.5C 24.799,134.526 31.299,128.86 41.5,127.5 Z M 234.5,255.5 C 248.5,255.5 262.5,255.5 276.5,255.5C 276.5,269.5 276.5,283.5 276.5,297.5C 262.5,297.5 248.5,297.5 234.5,297.5C 234.5,283.5 234.5,269.5 234.5,255.5 Z M 21.5,272.5 C 26.3266,274.497 31.3266,275.997 36.5,277C 95.1657,277.5 153.832,277.667 212.5,277.5C 212.333,289.171 212.5,300.838 213,312.5C 213.792,314.587 214.959,316.421 216.5,318C 229.409,319.149 242.409,319.649 255.5,319.5C 268.591,319.649 281.591,319.149 294.5,318C 296.041,316.421 297.208,314.587 298,312.5C 298.5,300.838 298.667,289.171 298.5,277.5C 357.168,277.667 415.834,277.5 474.5,277C 479.394,276.202 484.061,274.702 488.5,272.5C 489.667,325.164 489.833,377.83 489,430.5C 486.434,440.547 479.934,446.047 469.5,447C 326.833,447.667 184.167,447.667 41.5,447C 31.0662,446.047 24.5662,440.547 22,430.5C 21.5,377.834 21.3333,325.168 21.5,272.5 Z"/></g>
</svg>
