<?xml version="1.0" encoding="UTF-8"?>
<!DOCTYPE svg PUBLIC "-//W3C//DTD SVG 1.1//EN" "http://www.w3.org/Graphics/SVG/1.1/DTD/svg11.dtd">
<svg xmlns="http://www.w3.org/2000/svg" version="1.1" width="512px" height="512px" style="shape-rendering:geometricPrecision; text-rendering:geometricPrecision; image-rendering:optimizeQuality; fill-rule:evenodd; clip-rule:evenodd" xmlns:xlink="http://www.w3.org/1999/xlink">
<g><path style="opacity:0.932" fill="#000000" d="M 252.5,22.5 C 256.911,22.2028 260.911,23.3694 264.5,26C 341.167,70.3333 417.833,114.667 494.5,159C 499.601,166.588 497.934,172.255 489.5,176C 463.422,190.454 437.589,205.287 412,220.5C 411.667,253.167 411.333,285.833 411,318.5C 409.833,320.333 408.333,321.833 406.5,323C 358.5,350.667 310.5,378.333 262.5,406C 257.833,409.333 253.167,409.333 248.5,406C 220.749,389.707 192.915,373.54 165,357.5C 164.5,374.83 164.333,392.163 164.5,409.5C 175.64,413.813 182.806,421.813 186,433.5C 187.994,443.217 188.827,453.05 188.5,463C 188.632,470.267 188.132,477.434 187,484.5C 185.786,486.049 184.286,487.215 182.5,488C 164.833,488.667 147.167,488.667 129.5,488C 127.671,487.727 126.171,486.893 125,485.5C 123.864,477.599 123.364,469.599 123.5,461.5C 121.133,445.826 124.299,431.493 133,418.5C 137.11,414.391 141.777,411.057 147,408.5C 147.667,388.167 147.667,367.833 147,347.5C 132.915,339.207 118.748,331.04 104.5,323C 102.667,321.833 101.167,320.333 100,318.5C 99.6667,285.833 99.3333,253.167 99,220.5C 71.5816,204.54 44.0816,188.707 16.5,173C 11.3991,165.412 13.0658,159.745 21.5,156C 98.6685,111.636 175.669,67.1365 252.5,22.5 Z M 253.5,41.5 C 254.873,41.3433 256.207,41.51 257.5,42C 328.833,83.3333 400.167,124.667 471.5,166C 399.663,207.753 327.663,249.253 255.5,290.5C 228.003,274.919 200.67,259.086 173.5,243C 202.247,226.545 230.747,209.711 259,192.5C 261.216,183.39 257.716,179.223 248.5,180C 217.408,197.434 186.575,215.267 156,233.5C 117.248,210.874 78.4152,188.374 39.5,166C 111.06,124.726 182.393,83.2258 253.5,41.5 Z M 116.5,230.5 C 126.78,236.273 136.946,242.273 147,248.5C 147.667,274.833 147.667,301.167 147,327.5C 136.834,321.752 126.834,315.752 117,309.5C 116.5,283.169 116.333,256.835 116.5,230.5 Z M 393.5,230.5 C 394.663,256.663 394.83,282.997 394,309.5C 348.582,336.126 303.082,362.626 257.5,389C 256.167,389.667 254.833,389.667 253.5,389C 223.918,371.96 194.418,354.793 165,337.5C 164.333,311.167 164.333,284.833 165,258.5C 194.836,276.188 225.003,293.188 255.5,309.5C 260.472,308.038 265.138,305.871 269.5,303C 311.061,279.059 352.394,254.892 393.5,230.5 Z M 152.5,424.5 C 160.91,424.4 166.41,428.4 169,436.5C 169.92,439.101 170.587,441.768 171,444.5C 171.5,453.494 171.666,462.494 171.5,471.5C 161.167,471.5 150.833,471.5 140.5,471.5C 140.334,461.494 140.5,451.494 141,441.5C 142.386,434.027 146.22,428.361 152.5,424.5 Z"/></g>
</svg>
