<?xml version="1.0" standalone="no"?>
<!DOCTYPE svg PUBLIC "-//W3C//DTD SVG 20010904//EN"
 "http://www.w3.org/TR/2001/REC-SVG-20010904/DTD/svg10.dtd">
<svg version="1.0" xmlns="http://www.w3.org/2000/svg"
 width="100.000000pt" height="100.000000pt" viewBox="0 0 100.000000 100.000000"
 preserveAspectRatio="xMidYMid meet">

<g transform="translate(0.000000,100.000000) scale(0.100000,-0.100000)"
fill="#000000" stroke="none">
<path d="M300 940 c0 -13 -7 -20 -20 -20 -13 0 -20 -7 -20 -20 0 -13 -7 -20
-20 -20 -19 0 -20 -7 -20 -220 l0 -220 280 0 c273 0 280 0 280 20 0 13 7 20
20 20 13 0 20 7 20 20 0 13 7 20 20 20 19 0 20 7 20 200 0 193 -1 200 -20 200
-13 0 -20 7 -20 20 0 19 -7 20 -260 20 -253 0 -260 -1 -260 -20z m520 -40 c0
-13 -7 -20 -20 -20 -13 0 -20 -7 -20 -20 0 -13 -7 -20 -20 -20 -13 0 -20 7
-20 20 0 13 7 20 20 20 13 0 20 7 20 20 0 13 7 20 20 20 13 0 20 -7 20 -20z
m-140 -240 l0 -120 -180 0 -180 0 0 120 0 120 180 0 180 0 0 -120z"/>
<path d="M900 500 c0 -13 -7 -20 -20 -20 -13 0 -20 -7 -20 -20 0 -13 -7 -20
-20 -20 -19 0 -20 -7 -20 -140 0 -133 1 -140 20 -140 13 0 20 7 20 20 0 13 7
20 20 20 13 0 20 7 20 20 0 13 7 20 20 20 19 0 20 7 20 140 0 133 -1 140 -20
140 -13 0 -20 -7 -20 -20z"/>
<path d="M140 280 l0 -120 320 0 320 0 0 120 0 120 -320 0 -320 0 0 -120z
m560 20 c0 -13 -7 -20 -20 -20 -13 0 -20 -7 -20 -20 0 -13 -7 -20 -20 -20 -13
0 -20 7 -20 20 0 18 -7 20 -80 20 -73 0 -80 2 -80 20 0 19 7 20 120 20 113 0
120 -1 120 -20z m-420 -40 c0 -13 -7 -20 -20 -20 -13 0 -20 7 -20 20 0 13 7
20 20 20 13 0 20 -7 20 -20z"/>
<path d="M60 80 l0 -40 340 0 c333 0 340 0 340 20 0 13 7 20 20 20 13 0 20 7
20 20 0 20 -7 20 -360 20 l-360 0 0 -40z"/>
</g>
</svg>
