<?xml version="1.0" standalone="no"?>
<!DOCTYPE svg PUBLIC "-//W3C//DTD SVG 20010904//EN"
 "http://www.w3.org/TR/2001/REC-SVG-20010904/DTD/svg10.dtd">
<svg version="1.0" xmlns="http://www.w3.org/2000/svg"
 width="64.000000pt" height="64.000000pt" viewBox="0 0 64.000000 64.000000"
 preserveAspectRatio="xMidYMid meet">

<g transform="translate(0.000000,64.000000) scale(0.100000,-0.100000)"
fill="#000000" stroke="none">
<path d="M132 474 c-12 -8 -22 -26 -22 -39 0 -31 18 -42 22 -14 3 20 10 16 71
-36 37 -31 67 -61 67 -65 0 -4 -30 -34 -67 -65 -61 -52 -68 -56 -71 -36 -4 28
-22 17 -22 -14 0 -49 26 -55 252 -55 264 0 248 -11 248 170 0 181 16 170 -248
170 -172 0 -211 -3 -230 -16z m331 -99 c-54 -46 -100 -84 -103 -85 -4 0 -177
144 -197 164 -4 3 85 6 196 6 l202 0 -98 -85z m117 -56 l0 -121 -69 59 c-38
32 -70 60 -70 63 0 4 130 119 137 120 1 0 2 -54 2 -121z m-250 -41 l30 -22 30
23 31 22 70 -60 70 -61 -202 0 c-121 0 -199 4 -193 9 20 19 129 111 132 111 2
0 16 -10 32 -22z"/>
<path d="M70 350 c0 -5 23 -10 50 -10 28 0 50 5 50 10 0 6 -22 10 -50 10 -27
0 -50 -4 -50 -10z"/>
<path d="M30 290 c0 -6 30 -10 70 -10 40 0 70 4 70 10 0 6 -30 10 -70 10 -40
0 -70 -4 -70 -10z"/>
</g>
</svg>
