<?xml version="1.0" encoding="iso-8859-1"?>
<!-- Generator: Adobe Illustrator 19.0.0, SVG Export Plug-In . SVG Version: 6.00 Build 0)  -->
<svg version="1.1" id="Capa_1" xmlns="http://www.w3.org/2000/svg" xmlns:xlink="http://www.w3.org/1999/xlink" x="0px" y="0px"
	 viewBox="0 0 512 512" style="enable-background:new 0 0 512 512;" xml:space="preserve">
<g>
	<g>
		<path d="M488.468,136.274H183.855c-12.976,0-23.532,10.557-23.532,23.532v192.387c0,12.976,10.557,23.532,23.532,23.532h304.613
			c12.976,0,23.532-10.557,23.532-23.532V159.808C512,146.831,501.443,136.274,488.468,136.274z M183.855,151.274h304.613
			c3.575,0,6.639,2.212,7.906,5.338L364.812,258.467c-16.869,13.06-40.434,13.06-57.303,0l-131.56-101.854
			C177.216,153.488,180.28,151.274,183.855,151.274z M497,336.901l-84.102-65.111c-3.275-2.535-7.986-1.936-10.522,1.339
			c-2.536,3.275-1.936,7.986,1.339,10.522l92.658,71.736c-1.267,3.126-4.33,5.339-7.905,5.339H183.855
			c-3.575,0-6.639-2.212-7.906-5.338l92.658-71.736c3.275-2.536,3.875-7.247,1.339-10.522c-2.536-3.275-7.246-3.875-10.522-1.339
			l-84.102,65.111V175.099l123.004,95.229c11.138,8.623,24.486,12.935,37.834,12.935c13.348,0,26.696-4.312,37.834-12.935
			L497,175.099V336.901z"/>
	</g>
</g>
<g>
	<g>
		<path d="M135.758,272.548H39.564c-4.142,0-7.5,3.358-7.5,7.5c0,4.142,3.358,7.5,7.5,7.5h96.194c4.142,0,7.5-3.358,7.5-7.5
			C143.258,275.906,139.9,272.548,135.758,272.548z"/>
	</g>
</g>
<g>
	<g>
		<path d="M135.758,312.629H7.5c-4.142,0-7.5,3.358-7.5,7.5c0,4.142,3.358,7.5,7.5,7.5h128.258c4.142,0,7.5-3.358,7.5-7.5
			C143.258,315.987,139.9,312.629,135.758,312.629z"/>
	</g>
</g>
<g>
	<g>
		<path d="M135.758,232.469H71.629c-4.142,0-7.5,3.358-7.5,7.5c0,4.142,3.358,7.5,7.5,7.5h64.129c4.142,0,7.5-3.358,7.5-7.5
			C143.258,235.826,139.9,232.469,135.758,232.469z"/>
	</g>
</g>
<g>
	<g>
		<path d="M135.758,192.387h-32.065c-4.142,0-7.5,3.358-7.5,7.5c0,4.142,3.358,7.5,7.5,7.5h32.065c4.142,0,7.5-3.358,7.5-7.5
			C143.258,195.745,139.9,192.387,135.758,192.387z"/>
	</g>
</g>
<g>
</g>
<g>
</g>
<g>
</g>
<g>
</g>
<g>
</g>
<g>
</g>
<g>
</g>
<g>
</g>
<g>
</g>
<g>
</g>
<g>
</g>
<g>
</g>
<g>
</g>
<g>
</g>
<g>
</g>
</svg>
