<svg id="Layer_1" height="512" viewBox="0 0 66 66" width="512" xmlns="http://www.w3.org/2000/svg"><g><path d="m51.5 56.6c-10.2 8-24.3 8.5-35 1.4l2.3-.4c.5-.1.9-.6.8-1.1s-.6-.9-1.1-.8l-4.7.7c-.5.1-.9.6-.8 1.2l.7 4.6c.1.6.6.9 1.1.8s.9-.6.8-1.1l-.4-2.3c5.5 3.6 11.6 5.4 17.8 5.4 7 0 13.9-2.3 19.7-6.8.4-.3.5-1 .2-1.4-.4-.4-1-.5-1.4-.2z"/><path d="m14.5 9.4c10.3-8.1 24.3-8.5 35-1.4l-2.3.4c-.5.1-.9.6-.8 1.1s.5.8 1 .8c.1 0 1.3-.2 4.8-.8.4-.1 1-.6.8-1.2l-.7-4.6c-.1-.5-.6-.9-1.1-.8s-.9.6-.8 1.1l.4 2.3c-11.5-7.6-26.6-7.1-37.5 1.5-.4.3-.5 1-.2 1.4.4.4 1 .5 1.4.2z"/><path d="m8.3 12.9-4.6.8c-.5.1-.9.6-.8 1.2.1.5.6.9 1.2.8l2.2-.4c-7.6 11.4-7.1 26.4 1.5 37.4.2.3.5.4.8.4.2 0 .4-.1.6-.2.4-.3.5-1 .2-1.4-8.1-10.3-8.5-24.4-1.4-35.1l.4 2.3c.1.6.6.9 1.2.8.5-.1.9-.6.8-1.2l-.8-4.6c-.1-.4-.6-.9-1.3-.8z"/><path d="m61.9 50.4-2.3.4c7.6-11.4 7.2-26.5-1.4-37.4-.3-.4-1-.5-1.4-.2s-.5 1-.2 1.4c8.1 10.3 8.5 24.3 1.4 35l-.4-2.3c-.1-.5-.6-.9-1.1-.8s-.9.6-.8 1.1l.7 4.7c.1.5.6.9 1.1.8l4.7-.7c.5-.1.9-.6.8-1.1 0-.7-.5-1-1.1-.9z"/><path d="m32.1 6.9c-14.6.7-22.1 18.3-12.2 29.3 1.9 2.2 3.4 4.6 4.4 7.1-.5 0-1 .5-1 1v6c0 .6.4 1 1 1h1.4v.5c0 4 3.2 7.2 7.2 7.2s7.2-3.2 7.2-7.2v-.5h1.4c.6 0 1-.4 1-1v-6c0-.5-.4-1-1-1 1-2.6 2.5-5 4.4-7.1 10.5-11.5 1.9-30-13.8-29.3zm6.1 45c0 2.9-2.3 5.2-5.2 5.2s-5.2-2.3-5.2-5.2v-.5h10.4zm2.4-2.5h-15.2v-4h15.3v4zm-8.8-6-5.1-12.8 1.6.8c.4.2.9.1 1.2-.2l1.4-1.5 2.1 1.3c.4.2.9.2 1.2-.1l1.3-1.2 1.8 1.2c.3.2.7.2 1 .1l.9-.4-5.1 12.9h-2.3zm7.7 0h-3.3l5.8-14.6c.2-.4.1-.8-.2-1.1s-.7-.3-1.1-.2l-2.7 1.3-2-1.3c-.4-.2-.9-.2-1.2.1l-1.3 1.2-2.1-1.3c-.4-.2-.9-.2-1.2.2l-1.5 1.5-3.3-1.7c-.4-.2-.8-.1-1.1.1-.3.3-.4.7-.3 1.1l5.8 14.6h-3.2c-1.1-3.1-2.8-5.9-5.1-8.5-8.9-9.9-1.9-25.4 10.8-26 13.9-.7 21.5 15.8 12.4 26-2.4 2.6-4.1 5.5-5.2 8.6z"/></g></svg>