<?xml version="1.0" encoding="UTF-8"?>
<!DOCTYPE svg PUBLIC "-//W3C//DTD SVG 1.1//EN" "http://www.w3.org/Graphics/SVG/1.1/DTD/svg11.dtd">
<svg xmlns="http://www.w3.org/2000/svg" version="1.1" width="512px" height="512px" style="shape-rendering:geometricPrecision; text-rendering:geometricPrecision; image-rendering:optimizeQuality; fill-rule:evenodd; clip-rule:evenodd" xmlns:xlink="http://www.w3.org/1999/xlink">
<g><path style="opacity:0.928" fill="#000000" d="M 238.5,6.5 C 294.042,3.50938 345.209,16.8427 392,46.5C 391.44,40.1436 390.773,33.8102 390,27.5C 394.124,20.3871 399.124,19.7205 405,25.5C 407.846,39.7547 409.846,54.088 411,68.5C 409.272,71.9526 406.438,73.7859 402.5,74C 389.293,76.9804 375.96,78.6471 362.5,79C 357.801,74.9374 357.468,70.6041 361.5,66C 368.037,63.9087 374.703,62.242 381.5,61C 314.014,19.1321 243.014,12.1321 168.5,40C 147.555,48.7978 128.222,60.1311 110.5,74C 101.764,74.9315 98.2645,71.0982 100,62.5C 126.269,39.7766 156.436,23.9432 190.5,15C 206.432,10.9572 222.432,8.12388 238.5,6.5 Z"/></g>
<g><path style="opacity:0.931" fill="#000000" d="M 241.5,52.5 C 296.149,49.2446 338.983,69.9112 370,114.5C 392.551,151.573 397.551,190.906 385,232.5C 381.547,241.406 377.547,250.073 373,258.5C 362.715,272.453 352.048,286.12 341,299.5C 333.785,310.597 327.618,322.263 322.5,334.5C 325.367,335.34 327.533,337.007 329,339.5C 329.667,357.5 329.667,375.5 329,393.5C 328.5,395.333 327.333,396.5 325.5,397C 320.845,397.499 316.179,397.666 311.5,397.5C 311.457,424.112 299.457,442.945 275.5,454C 245.522,462.9 222.022,454.4 205,428.5C 200.211,418.723 198.044,408.389 198.5,397.5C 193.489,397.666 188.489,397.499 183.5,397C 181.951,395.786 180.785,394.286 180,392.5C 179.333,375.5 179.333,358.5 180,341.5C 180.764,337.901 182.93,335.901 186.5,335.5C 183.014,324.86 178.18,314.86 172,305.5C 163.431,292.928 154.097,280.928 144,269.5C 116.687,228.992 111.353,185.658 128,139.5C 149.49,89.1767 187.323,60.1767 241.5,52.5 Z M 241.5,68.5 C 305.512,65.3842 348.679,93.7175 371,153.5C 382.136,192.14 376.136,227.806 353,260.5C 332.107,281.751 316.44,306.418 306,334.5C 297.892,335.815 289.725,335.815 281.5,334.5C 297.094,296.381 312.094,258.047 326.5,219.5C 326.181,214.515 323.515,211.848 318.5,211.5C 310.5,214.833 302.5,218.167 294.5,221.5C 289.462,219.299 284.796,216.466 280.5,213C 277.298,211.517 273.964,211.183 270.5,212C 266.655,215.18 262.822,218.347 259,221.5C 254.601,219.384 250.434,216.884 246.5,214C 243.119,211.755 239.452,211.088 235.5,212C 231,216.5 226.5,221 222,225.5C 213.421,221.127 204.921,216.627 196.5,212C 189.478,210.176 185.478,212.842 184.5,220C 199.206,257.952 214.206,295.786 229.5,333.5C 221.528,334.498 213.528,334.831 205.5,334.5C 198.71,313.914 188.543,295.247 175,278.5C 131.78,233.502 124.446,183.168 153,127.5C 173.585,94.4077 203.085,74.7411 241.5,68.5 Z M 274.5,230.5 C 279.286,233.445 283.952,236.612 288.5,240C 293.356,240.711 298.022,240.378 302.5,239C 289.475,271.07 276.642,303.237 264,335.5C 258.221,336.807 252.388,336.807 246.5,335.5C 233.377,303.279 220.877,270.945 209,238.5C 213.958,242.243 219.458,244.076 225.5,244C 230.345,239.82 235.178,235.653 240,231.5C 245.402,234.786 250.902,237.953 256.5,241C 258.833,241.667 261.167,241.667 263.5,241C 267.668,237.998 271.335,234.498 274.5,230.5 Z M 197.5,352.5 C 236.5,352.5 275.5,352.5 314.5,352.5C 314.5,362.5 314.5,372.5 314.5,382.5C 275.5,382.5 236.5,382.5 197.5,382.5C 197.5,372.5 197.5,362.5 197.5,352.5 Z M 215.5,398.5 C 242.167,398.5 268.833,398.5 295.5,398.5C 295.689,417.294 287.355,430.794 270.5,439C 244.73,446.031 226.896,437.198 217,412.5C 216.006,407.882 215.506,403.215 215.5,398.5 Z"/></g>
<g><path style="opacity:0.931" fill="#000000" d="M 58.5,99.5 C 62.1817,99.3347 65.8484,99.5014 69.5,100C 71.6667,100.833 73.1667,102.333 74,104.5C 77.3096,118.352 79.3096,132.352 80,146.5C 75.4865,152.747 70.4865,153.08 65,147.5C 63.5591,141.188 62.2258,134.855 61,128.5C 20.6863,193.319 12.6863,261.986 37,334.5C 46.2504,358.345 58.5838,380.345 74,400.5C 75.4354,407.234 72.7687,410.9 66,411.5C 63.1861,411.592 60.8527,410.592 59,408.5C 7.78128,339.058 -5.88538,262.725 18,179.5C 24.9661,158.403 34.4661,138.569 46.5,120C 39.5519,120.877 32.5519,121.211 25.5,121C 20.244,116.076 20.244,111.076 25.5,106C 36.668,103.999 47.668,101.833 58.5,99.5 Z"/></g>
<g><path style="opacity:0.928" fill="#000000" d="M 440.5,100.5 C 443.978,100.184 447.312,100.684 450.5,102C 494.585,159.165 511.418,223.665 501,295.5C 495.303,330.38 482.803,362.547 463.5,392C 470.167,391.333 476.833,390.667 483.5,390C 485.492,390.574 486.992,391.741 488,393.5C 488.667,396.5 488.667,399.5 488,402.5C 486.786,404.049 485.286,405.215 483.5,406C 470.289,408.172 457.122,410.339 444,412.5C 441.132,411.639 438.798,409.972 437,407.5C 434.921,393.941 432.754,380.441 430.5,367C 434.109,358.679 439.276,357.512 446,363.5C 447.441,369.812 448.774,376.145 450,382.5C 491.868,315.012 498.868,244.012 471,169.5C 462.534,149.219 451.534,130.552 438,113.5C 435.567,108.498 436.401,104.165 440.5,100.5 Z"/></g>
<g><path style="opacity:0.929" fill="#000000" d="M 136.5,431.5 C 140.514,431.334 144.514,431.501 148.5,432C 153.996,437.149 153.663,441.816 147.5,446C 141.551,447.547 135.551,448.881 129.5,450C 201.337,493.984 276.004,499.317 353.5,466C 370.226,457.919 385.892,448.252 400.5,437C 409.236,436.068 412.736,439.902 411,448.5C 379.223,475.132 342.723,492.299 301.5,500C 235.868,511.407 175.034,499.24 119,463.5C 119.56,469.856 120.227,476.19 121,482.5C 118.163,488.542 113.663,490.042 107.5,487C 106.137,485.055 105.303,482.888 105,480.5C 103.26,468.651 101.426,456.818 99.5,445C 99.9095,442.679 100.743,440.513 102,438.5C 113.468,435.652 124.968,433.318 136.5,431.5 Z"/></g>
</svg>
