<?xml version="1.0" standalone="no"?>
<!DOCTYPE svg PUBLIC "-//W3C//DTD SVG 20010904//EN"
 "http://www.w3.org/TR/2001/REC-SVG-20010904/DTD/svg10.dtd">
<svg version="1.0" xmlns="http://www.w3.org/2000/svg"
 width="64.000000pt" height="64.000000pt" viewBox="0 0 64.000000 64.000000"
 preserveAspectRatio="xMidYMid meet">

<g transform="translate(0.000000,64.000000) scale(0.100000,-0.100000)"
fill="#000000" stroke="none">
<path d="M42 507 c-21 -22 -22 -33 -22 -181 0 -153 1 -157 25 -181 l24 -25
251 0 251 0 24 25 c24 23 25 28 25 178 0 141 -2 157 -21 181 l-20 26 -258 0
c-256 0 -258 0 -279 -23z m538 -22 c7 -9 11 -17 9 -19 -2 -1 -64 -36 -136 -75
l-133 -73 -132 73 c-73 39 -135 74 -137 75 -2 2 2 10 9 19 19 23 501 23 520 0z
m-397 -125 c69 -38 131 -70 137 -70 6 0 68 32 137 70 69 39 127 70 129 70 2 0
4 -58 4 -128 0 -86 -4 -132 -12 -140 -17 -17 -499 -17 -516 0 -8 8 -12 54 -12
140 0 70 2 128 4 128 2 0 60 -31 129 -70z"/>
</g>
</svg>
