<?xml version="1.0" standalone="no"?>
<!DOCTYPE svg PUBLIC "-//W3C//DTD SVG 20010904//EN"
 "http://www.w3.org/TR/2001/REC-SVG-20010904/DTD/svg10.dtd">
<svg version="1.0" xmlns="http://www.w3.org/2000/svg"
 width="64.000000pt" height="64.000000pt" viewBox="0 0 64.000000 64.000000"
 preserveAspectRatio="xMidYMid meet">

<g transform="translate(0.000000,64.000000) scale(0.100000,-0.100000)"
fill="#000000" stroke="none">
<path d="M93 503 c-18 -7 -16 -40 3 -47 20 -8 428 -8 448 0 21 8 21 40 0 48
-19 7 -433 7 -451 -1z"/>
<path d="M93 343 c-18 -7 -16 -40 3 -47 20 -8 428 -8 448 0 21 8 21 40 0 48
-19 7 -433 7 -451 -1z"/>
<path d="M93 183 c-18 -7 -16 -40 3 -47 20 -8 428 -8 448 0 21 8 21 40 0 48
-19 7 -433 7 -451 -1z"/>
</g>
</svg>
