<?xml version="1.0" standalone="no"?>
<!DOCTYPE svg PUBLIC "-//W3C//DTD SVG 20010904//EN"
 "http://www.w3.org/TR/2001/REC-SVG-20010904/DTD/svg10.dtd">
<svg version="1.0" xmlns="http://www.w3.org/2000/svg"
 width="100.000000pt" height="100.000000pt" viewBox="0 0 100.000000 100.000000"
 preserveAspectRatio="xMidYMid meet">

<g transform="translate(0.000000,100.000000) scale(0.100000,-0.100000)"
fill="#000000" stroke="none">
<path d="M350 989 c-71 -14 -165 -65 -205 -112 -48 -55 -72 -103 -90 -179 -29
-125 -12 -234 54 -348 58 -102 63 -118 69 -227 l5 -103 238 0 239 0 0 40 0 40
43 0 c107 0 177 79 177 200 l0 66 45 22 c66 32 67 53 7 156 -28 48 -55 108
-61 138 -24 113 -91 214 -175 263 -81 47 -231 67 -346 44z m230 -208 c0 -37
-2 -40 -31 -43 -64 -6 -64 -70 0 -76 27 -3 31 -7 31 -32 0 -27 -3 -29 -47 -32
-46 -3 -48 -4 -53 -38 -3 -22 -10 -35 -20 -35 -10 0 -17 13 -20 35 -5 34 -7
35 -52 38 -45 3 -48 5 -48 32 0 25 -4 29 -31 32 -64 6 -64 70 0 76 29 3 31 6
31 43 l0 39 120 0 120 0 0 -39z m-176 -251 c12 -63 100 -63 112 0 5 25 11 30
35 30 25 0 29 -4 29 -29 0 -26 4 -30 31 -33 64 -6 64 -70 0 -76 -29 -3 -31 -6
-31 -43 0 -39 0 -39 -39 -39 -37 0 -40 -2 -43 -31 -6 -64 -70 -64 -76 0 -3 29
-6 31 -43 31 l-39 0 0 110 0 110 29 0 c24 0 30 -5 35 -30z"/>
</g>
</svg>
