<?xml version="1.0" encoding="UTF-8"?>
<!DOCTYPE svg PUBLIC "-//W3C//DTD SVG 1.1//EN" "http://www.w3.org/Graphics/SVG/1.1/DTD/svg11.dtd">
<svg xmlns="http://www.w3.org/2000/svg" version="1.1" width="512px" height="512px" style="shape-rendering:geometricPrecision; text-rendering:geometricPrecision; image-rendering:optimizeQuality; fill-rule:evenodd; clip-rule:evenodd" xmlns:xlink="http://www.w3.org/1999/xlink">
<g><path style="opacity:0.923" fill="#000000" d="M 311.5,16.5 C 316.034,16.267 320.368,17.1003 324.5,19C 368.631,38.7357 394.297,72.5691 401.5,120.5C 401.983,129.108 397.983,132.275 389.5,130C 388.333,128.833 387.167,127.667 386,126.5C 379.497,79.95 354.33,48.45 310.5,32C 305.263,26.5207 305.596,21.354 311.5,16.5 Z"/></g>
<g><path style="opacity:0.928" fill="#000000" d="M 221.5,19.5 C 234.26,19.1309 244.76,23.7975 253,33.5C 284.667,84.5 316.333,135.5 348,186.5C 359.394,202.232 373.56,214.732 390.5,224C 396.304,226.186 400.471,224.353 403,218.5C 406.19,189.883 412.19,161.883 421,134.5C 434.842,110.544 455.342,101.71 482.5,108C 487.312,108.989 491.479,111.156 495,114.5C 495.667,117.5 495.667,120.5 495,123.5C 486.22,151.345 481.387,179.845 480.5,209C 480.654,217.188 481.154,225.355 482,233.5C 487.353,264.303 491.019,295.303 493,326.5C 497.563,364.843 485.73,397.01 457.5,423C 438.602,440.769 418.602,457.102 397.5,472C 354.591,497.189 311.258,497.856 267.5,474C 254.62,466.45 242.287,458.116 230.5,449C 209.5,430 188.5,411 167.5,392C 121.755,365.932 75.7552,340.266 29.5,315C 16.927,306.286 12.427,294.453 16,279.5C 23.6257,259.437 37.7923,252.27 58.5,258C 98.3667,278.6 138.367,298.6 178.5,318C 133.5,283.667 88.5,249.333 43.5,215C 30.4491,204.308 26.2824,190.808 31,174.5C 41.8252,154.08 57.9919,148.247 79.5,157C 127.343,191.555 175.343,225.555 223.5,259C 178.635,212.469 134.135,165.636 90,118.5C 79.8494,98.9057 83.0161,81.7391 99.5,67C 113.331,58.7909 127.331,58.4575 141.5,66C 186.364,111.863 230.864,158.03 275,204.5C 275.315,203.092 274.982,201.759 274,200.5C 246.748,155.666 219.748,110.666 193,65.5C 188.079,40.9784 197.579,25.6451 221.5,19.5 Z M 222.5,36.5 C 229.12,36.2272 234.62,38.5606 239,43.5C 271.416,96.0014 304.083,148.335 337,200.5C 349.426,216.595 364.593,229.428 382.5,239C 401.656,246.005 414.156,239.838 420,220.5C 422.904,194.313 428.237,168.647 436,143.5C 444.737,126.384 458.57,119.884 477.5,124C 465.727,159.959 461.56,196.793 465,234.5C 470.259,264.977 473.925,295.644 476,326.5C 479.972,354.968 472.639,379.968 454,401.5C 432.25,423.262 408.75,442.762 383.5,460C 345.654,480.109 308.321,479.109 271.5,457C 258.941,449.108 246.941,440.441 235.5,431C 216.466,412.965 197.133,395.298 177.5,378C 130.662,351.413 83.6616,325.08 36.5,299C 30.4515,290.158 31.4515,282.158 39.5,275C 43.6609,272.207 47.9942,271.874 52.5,274C 94.4294,296.131 136.763,317.465 179.5,338C 194.86,339.815 201.693,332.981 200,317.5C 198.324,312.822 195.491,308.989 191.5,306C 143.715,269.883 96.215,233.383 49,196.5C 42.9016,181.753 47.5682,172.753 63,169.5C 66.384,170.072 69.5507,171.239 72.5,173C 119.833,207 167.167,241 214.5,275C 226.327,281.684 235.494,279.184 242,267.5C 243.162,261.443 242.162,255.777 239,250.5C 193.667,202.5 148.333,154.5 103,106.5C 98.6914,92.9467 103.191,83.4467 116.5,78C 121.734,77.0229 126.734,77.6896 131.5,80C 176.531,126.03 221.197,172.363 265.5,219C 276.617,226.304 285.783,224.471 293,213.5C 294.499,205.627 293.166,198.294 289,191.5C 262.082,147.333 235.415,102.999 209,58.5C 207.16,47.1907 211.66,39.8573 222.5,36.5 Z"/></g>
<g><path style="opacity:0.919" fill="#000000" d="M 304.5,57.5 C 311.451,58.3042 317.784,60.8042 323.5,65C 345.462,81.2381 358.795,102.905 363.5,130C 362.246,137.467 357.912,140.134 350.5,138C 349.333,136.833 348.167,135.667 347,134.5C 344.041,113.077 334.208,95.5766 317.5,82C 311.667,78.1667 305.833,74.3333 300,70.5C 298.243,64.8252 299.743,60.4918 304.5,57.5 Z"/></g>
<g><path style="opacity:0.921" fill="#000000" d="M 54.5,361.5 C 57.6492,361.211 60.6492,361.711 63.5,363C 78.5843,388.395 100.918,403.062 130.5,407C 135.3,414.763 133.3,419.93 124.5,422.5C 92.3978,418.542 67.8978,402.876 51,375.5C 48.2672,369.722 49.4339,365.056 54.5,361.5 Z"/></g>
<g><path style="opacity:0.924" fill="#000000" d="M 18.5,380.5 C 21.3198,380.248 23.9865,380.748 26.5,382C 48.8832,423.662 83.8832,444.662 131.5,445C 139.088,449.924 139.421,455.257 132.5,461C 84.6089,462.471 47.1089,443.638 20,404.5C 16.8351,399.67 14.3351,394.503 12.5,389C 13.1868,385.16 15.1868,382.327 18.5,380.5 Z"/></g>
</svg>
