<?xml version="1.0" standalone="no"?>
<!DOCTYPE svg PUBLIC "-//W3C//DTD SVG 20010904//EN"
 "http://www.w3.org/TR/2001/REC-SVG-20010904/DTD/svg10.dtd">
<svg version="1.0" xmlns="http://www.w3.org/2000/svg"
 width="64.000000pt" height="64.000000pt" viewBox="0 0 64.000000 64.000000"
 preserveAspectRatio="xMidYMid meet">

<g transform="translate(0.000000,64.000000) scale(0.100000,-0.100000)"
fill="#000000" stroke="none">
<path d="M232 606 c-160 -52 -240 -219 -187 -388 17 -52 17 -57 -3 -126 -19
-66 -19 -72 -4 -68 112 33 140 36 182 21 62 -22 165 -19 220 6 59 26 115 82
148 144 21 40 26 64 26 125 1 122 -56 215 -167 271 -53 28 -155 34 -215 15z
m212 -70 c146 -86 166 -285 40 -396 -21 -18 -52 -39 -70 -46 -45 -19 -135 -18
-185 2 -33 14 -50 15 -85 7 -49 -11 -50 -9 -34 46 7 27 5 41 -11 73 -37 72
-21 195 33 258 21 25 81 67 113 79 50 18 148 7 199 -23z"/>
<path d="M186 438 c-23 -33 -20 -69 12 -119 67 -104 190 -165 250 -123 35 24
28 57 -15 78 -36 17 -37 17 -54 -6 l-18 -23 -36 19 c-20 11 -46 33 -57 49 -18
25 -19 32 -7 53 11 21 10 30 -4 59 -19 41 -48 46 -71 13z"/>
</g>
</svg>
